# xmcd CD database file
#
# Track frame offsets:
#	150
#	14587
#	27693
#	41897
#	56804
#	70126
#	83936
#	98091
#	112890
#	125517
#	139779
#	152156
#	163039
#	173035
#	185093
#	195025
#	206647
#	220403
#
# Disc length: 3103 seconds
#
# Revision: 0
# Processed by: cddbd v1.5.1PL2 Copyright (c) Steve Scherf et al.
# Submitted via: CDex 1.51
#
DISCID=070c1d12
DTITLE=Erroll Garner - 1999_The quintassence, (new York-hollywood 1944-1947)_CD1
DYEAR=1999
DGENRE=Jazz
TTITLE0=Blues I Can't Forget 
TTITLE1=Twistin' The Cat's Tail 
TTITLE2=Movin' Around 
TTITLE3=Night and Day 
TTITLE4=Jumpin' At The Deuces 
TTITLE5=Yesterdays 
TTITLE6=Loot To Boot 
TTITLE7=Gaslight 
TTITLE8=One O'clock Jump (version 1)
TTITLE9=Harvard Blues 
TTITLE10=Slam-In' Around 
TTITLE11=Sweet Georgia Brown 
TTITLE12=Blue Skies
TTITLE13=St. Louis Blues 
TTITLE14=I Know That You Know 
TTITLE15=Hop, Skip And Jump 
TTITLE16=Sherry Lynn Flip 
TTITLE17=Laura
EXTD=YEAR: 1999
EXTT0=
EXTT1=
EXTT2=
EXTT3=
EXTT4=
EXTT5=
EXTT6=
EXTT7=
EXTT8=
EXTT9=
EXTT10=
EXTT11=
EXTT12=
EXTT13=
EXTT14=
EXTT15=
EXTT16=
EXTT17=
PLAYORDER=
